<svg width="337" height="226" viewBox="0 0 337 226" fill="none" xmlns="http://www.w3.org/2000/svg">
<path d="M169.144 183.693C167.687 183.693 166.292 183.63 164.928 183.693C158.107 183.972 151.442 185.058 144.963 187.262C144.684 187.355 144.405 187.448 144.095 187.51C143.165 187.697 142.328 187.51 141.584 186.89C141.336 186.672 141.119 186.393 140.933 186.176C140.189 186.083 139.724 186.424 139.321 186.921C138.422 185.741 137.709 184.562 137.026 183.351C135.29 180.216 133.833 176.957 132.624 173.605C131.477 170.439 130.454 167.21 129.369 164.013C129.214 163.579 129.09 163.175 128.966 162.772C128.532 162.741 128.532 163.02 128.501 163.237C127.881 166.559 127.323 169.88 126.672 173.201C126.083 176.305 125.432 179.44 124.812 182.544C124.626 183.506 124.285 184.313 123.355 184.841C122.27 185.431 121.154 185.741 119.914 185.431C118.953 185.182 118.24 184.5 117.899 183.599C117.31 181.985 116.349 180.62 115.48 179.161C113.62 175.995 111.76 172.829 109.869 169.663C109.621 169.259 109.342 168.856 109.001 168.297C108.722 168.856 108.815 169.29 108.815 169.725C108.815 170.159 108.846 170.625 108.846 171.059C108.846 171.463 108.877 171.866 108.877 172.239C108.877 172.673 108.908 173.139 108.908 173.574C108.908 174.008 108.939 174.474 108.939 174.908C108.939 175.343 108.97 175.808 108.97 176.243C108.97 176.647 108.97 177.05 108.97 177.423C108.97 177.857 108.97 178.323 108.97 178.757C108.97 179.192 108.97 179.657 108.97 180.092C108.97 180.527 108.97 180.992 108.97 181.427C108.97 181.83 108.97 182.234 108.97 182.606C108.97 183.041 108.97 183.475 108.97 183.879C108.04 184.438 108.04 184.438 107.699 185.307C107.358 186.145 107.017 186.952 106.738 187.79C106.552 188.349 106.273 188.783 105.715 188.969C105.095 189.156 104.785 189.652 104.568 190.18C103.979 190.366 103.421 189.745 102.956 190.211C102.615 190.552 102.429 191.018 102.181 191.421C101.84 191.421 101.902 191.173 101.902 191.018C101.592 187.293 101.344 183.599 101.003 179.875C100.6 175.622 100.135 171.37 99.6387 167.148C99.1737 163.299 98.6467 159.482 98.0576 155.633C97.6856 153.336 97.1586 151.07 96.6936 148.773C96.6316 148.525 96.6316 148.307 96.5696 148.028C97.7166 147.345 98.9257 147.097 100.135 147.035C101.034 147.004 101.902 146.879 102.77 146.631C103.793 146.321 104.816 146.29 105.87 146.352C107.699 146.476 109.032 147.283 109.807 149.021C112.411 154.919 115.046 160.816 117.651 166.714C117.868 167.21 118.085 167.707 118.302 168.204C118.364 168.328 118.488 168.39 118.674 168.545C118.829 167.986 118.953 167.552 119.046 167.086C120.503 160.506 122.332 154.019 124.378 147.562C124.781 146.259 124.781 146.259 124.626 144.862C124.843 144.676 125.06 144.427 125.37 144.241C127.323 143.093 129.431 142.41 131.725 142.472C133.709 142.534 134.732 143.279 135.29 145.203C135.631 146.383 135.848 147.624 136.034 148.835C136.84 154.95 138.05 160.972 139.414 166.962C139.538 167.459 139.662 167.924 139.786 168.39C140.22 168.39 140.22 168.049 140.313 167.769C141.77 163.299 142.979 158.737 143.847 154.081C144.529 150.418 144.963 146.724 145.273 143C145.304 142.751 145.335 142.503 145.335 142.224C145.521 142.13 145.676 141.975 145.862 141.975C147.536 141.727 149.179 141.479 150.853 141.292C152 141.168 153.116 141.323 154.232 141.727C154.542 141.851 154.914 141.851 155.255 141.913C155.596 141.944 155.937 141.944 156.278 141.975C158.51 142.286 159.658 143.31 160.123 145.514C162.014 154.577 164.866 163.331 168.524 171.835C168.617 172.022 168.679 172.208 168.772 172.487C168.4 172.736 167.935 171.929 167.594 172.518C167.563 172.58 167.129 172.518 166.943 172.425C166.664 172.332 166.385 172.084 166.106 172.301C165.61 172.736 165.424 172.208 165.052 171.991C164.463 172.487 164.649 173.387 164.06 173.884C160.65 173.015 157.208 172.953 153.736 173.263C150.853 173.512 148.032 174.008 145.242 174.722C143.816 175.064 142.483 175.126 141.181 173.822C141.398 175.281 141.739 176.429 142.173 177.609C142.421 177.609 142.607 177.609 142.793 177.578C145.707 176.553 148.776 176.119 151.845 175.933C155.813 175.684 159.782 175.684 163.688 176.429C164.742 176.616 165.796 176.957 166.819 177.298C167.904 177.671 168.71 178.354 168.741 179.626C168.741 179.719 168.772 179.844 168.834 179.906C169.64 180.837 169.392 181.83 169.113 182.854C169.268 183.258 169.206 183.475 169.144 183.693ZM153.333 156.843C152 160.009 150.605 163.827 150.512 164.51C152.775 164.758 155.007 164.976 157.27 165.224C157.27 165.069 157.332 164.976 157.301 164.882C156.092 162.275 154.883 159.668 153.643 157.061C153.612 156.998 153.519 156.967 153.333 156.843ZM257.87 140.92C257.746 140.765 257.684 140.703 257.591 140.609C257.56 140.672 257.467 140.703 257.467 140.765C257.343 142.255 257.002 143.682 256.568 145.11C256.165 146.383 256.01 147.718 255.731 149.145C255.638 149.239 255.452 149.394 255.297 149.58C254.801 150.263 254.088 150.387 253.313 150.387C252.817 150.387 252.445 150.139 252.321 149.642C252.042 148.494 251.701 147.345 251.484 146.166C250.74 142.037 250.461 137.909 250.709 133.719C250.988 128.752 251.856 123.879 253.034 119.037C253.065 118.851 253.127 118.664 253.158 118.478C252.662 118.385 252.631 118.789 252.476 119.037C251.205 121.117 249.996 123.227 248.725 125.307C247.95 126.58 247.082 127.79 246.307 129.063C245.284 130.708 243.857 131.049 242.059 130.677C239.052 130.056 237.099 128.318 236.231 125.369C235.952 124.407 235.828 123.445 235.642 122.451C235.58 122.079 235.549 121.675 235.518 121.334C235.084 121.117 234.867 121.396 234.681 121.582C234.123 122.11 233.503 122.358 232.697 122.451C224.048 123.445 215.584 125.307 207.338 128.069C207.276 128.1 207.245 128.1 207.183 128.132C206.098 128.597 205.478 128.721 204.548 127.076C203.897 125.928 203.649 124.686 203.37 123.289C203.153 123.445 202.905 123.507 202.781 123.662C200.92 125.804 198.502 127.014 195.774 127.604C193.294 128.132 190.783 128.318 188.241 128.132C185.141 127.914 182.506 126.642 180.274 124.562C177.886 122.358 176.243 119.658 175.499 116.492C175.468 116.336 175.406 116.212 175.344 115.964C175.158 116.119 174.972 116.181 174.879 116.336C172.833 119.534 169.981 121.768 166.571 123.351C162.355 125.338 157.89 126.393 153.209 126.517C152.775 126.517 152.372 126.517 152.031 126.983C151.845 127.262 151.349 127.293 150.853 127.48C150.698 127.821 150.512 128.256 150.295 128.752C149.923 128.908 149.52 129.094 149.148 129.249C149.086 129.187 148.993 129.125 148.993 129.063C148.869 128.038 148.745 126.983 148.621 125.897C147.722 125.462 146.761 125.059 145.893 124.531C145.056 124.034 144.281 123.413 143.475 122.824C143.196 123.01 143.351 123.258 143.382 123.476C143.506 124.003 143.63 124.531 143.785 125.059C144.033 125.897 143.847 126.642 143.351 127.293C142.297 128.721 140.871 129.559 139.073 129.652C137.988 129.715 137.026 129.373 136.189 128.628C135.6 128.1 135.104 127.449 134.763 126.735C134.422 125.959 133.926 125.276 133.399 124.624C129.865 120.247 126.703 115.623 123.572 110.967C122.332 109.104 121.092 107.242 119.852 105.41C119.666 105.131 119.449 104.883 119.232 104.603C118.829 104.914 118.984 105.286 118.984 105.597C119.108 108.483 119.263 111.339 119.387 114.226C119.511 117.361 119.604 120.465 119.697 123.6C119.697 123.879 119.728 124.252 119.573 124.469C118.953 125.307 118.86 126.3 118.488 127.231C118.364 127.542 118.271 127.976 118.023 128.132C117.403 128.597 117.186 129.218 117.124 129.932C117.093 130.18 117 130.397 116.876 130.708C116.597 130.677 116.38 130.646 116.069 130.584C115.883 131.235 115.697 131.887 115.511 132.539C114.953 132.85 114.395 133.16 113.837 133.47C113.496 133.315 113.62 132.974 113.527 132.725C113.465 132.477 113.403 132.229 113.372 132.011C112.938 128.876 112.535 125.71 112.101 122.575C111.636 119.13 111.202 115.685 110.737 112.239C110.241 108.545 109.714 104.852 109.156 101.189C108.567 97.1229 107.947 93.0567 106.831 89.0836C107.079 88.618 107.544 88.5559 107.947 88.4007C108.722 88.0903 109.528 87.811 110.272 87.4385C111.667 86.8177 113.093 86.5073 114.612 86.6315C116.473 86.7867 117.93 87.5937 118.922 89.1767C119.108 89.4561 119.263 89.7975 119.418 90.0769C123.2 97.4953 127.478 104.666 131.787 111.805C131.942 112.053 132.128 112.27 132.283 112.519C132.686 112.27 132.5 111.96 132.5 111.712C131.973 102.927 131.818 94.1431 132.004 85.3588C132.004 84.676 132.066 83.962 132.097 83.2792C132.097 83.0929 132.19 82.9067 132.252 82.7515C132.748 82.7515 132.686 83.9 133.368 82.9998C133.771 83.8689 134.112 84.6139 134.484 85.3588C134.887 85.3899 135.228 85.4519 135.693 85.483C136.437 86.6625 137.243 87.9041 138.112 89.2698C138.267 88.618 138.391 88.1524 138.515 87.6868C138.763 86.8177 139.29 86.1659 140.127 85.8555C141.057 85.514 141.987 85.1416 142.948 84.9243C148.9 83.5896 154.852 83.5275 160.774 85.1105C164.68 86.1348 168.152 87.9662 171.035 90.8839C172.492 92.3738 173.701 94.081 174.6 95.9744C174.786 96.3779 175.003 96.7504 175.22 97.1539C175.592 96.9677 175.437 96.6883 175.468 96.5021C175.623 95.2605 175.716 94.0189 175.871 92.8084C176.057 91.6288 176.615 90.5425 177.111 89.4871C177.483 88.649 178.227 88.1214 178.971 87.5937C179.994 86.9108 181.142 86.4142 182.32 86.0107C184.521 85.2347 186.815 84.738 189.109 84.3345C192.24 83.8068 195.402 83.5585 198.564 83.3412C199.742 83.2481 200.548 83.6516 201.292 84.4897C203.339 86.6935 203.525 89.3319 201.727 92.2496C198.874 92.2496 195.96 92.4979 193.077 93.0256C187.993 93.9568 186.195 94.4535 184.8 95.2294C184.769 95.5709 185.048 95.633 185.265 95.7261C186.133 96.0986 187.001 96.409 187.9 96.7504C190.318 97.6505 192.705 98.6128 194.999 99.7923C197.262 100.941 199.401 102.275 201.292 103.983C202.347 104.914 203.277 105.938 204.052 107.087C205.757 109.632 206.408 112.425 205.974 115.436C205.819 116.616 205.571 117.764 205.323 119.006C205.54 119.006 205.788 119.068 205.912 118.975C206.098 118.851 206.284 118.633 206.315 118.416C206.47 117.423 206.563 116.461 206.656 115.467C207.028 112.27 207.431 109.073 207.772 105.845C208.144 102.431 208.485 99.0163 208.795 95.633C208.95 94.1431 209.043 92.6531 209.136 91.1632C209.229 89.425 209.26 87.6868 209.322 85.8865C209.632 85.5451 210.159 85.5761 210.624 85.514C211.461 85.4209 212.298 85.4209 213.135 85.4519C214.282 85.483 215.398 85.6071 216.545 85.6382C220.11 85.7313 223.676 86.0727 227.21 86.4763C230.713 86.8798 234.185 87.3143 237.688 87.7178C238.122 87.7799 238.587 87.7178 238.835 88.2145C238.897 88.3386 239.269 88.3386 239.517 88.3076C241.253 88.0903 242.865 88.587 244.385 89.3629C245.935 90.1389 246.865 91.4426 247.175 93.1808C247.392 94.3603 247.392 95.5398 247.299 96.7504C246.989 99.9164 246.338 103.02 245.811 106.155C245.377 108.763 244.943 111.339 244.54 113.946C244.509 114.164 244.54 114.412 244.54 114.847C245.005 114.443 245.315 114.226 245.563 113.946C246.431 112.922 247.33 111.929 248.167 110.873C250.895 107.459 253.592 104.045 256.351 100.63C257.498 99.2025 258.738 97.8368 259.947 96.44C260.412 95.9123 260.815 95.3846 261.032 94.7018C261.404 93.4602 262.334 92.8704 263.574 92.7773C265.156 92.6532 266.644 92.9635 268.039 93.6464C270.488 94.857 271.139 97.216 270.922 99.0473C270.829 99.6681 270.55 100.289 270.271 100.848C268.287 104.914 266.489 109.042 264.876 113.264C262.644 119.068 260.784 124.965 259.544 131.08C259.048 133.47 258.645 135.86 258.428 138.281C258.397 138.716 258.304 139.182 258.211 139.585C258.18 140.051 258.025 140.454 257.87 140.92ZM214.437 116.895C215.553 116.709 216.7 116.492 217.847 116.305C219.025 116.119 220.203 115.933 221.381 115.778C222.559 115.623 223.738 115.467 224.916 115.343C226.156 115.219 227.396 115.157 228.636 115.064C229.814 115.002 231.023 114.94 232.201 114.94C233.379 114.94 234.557 115.002 235.704 115.033C235.797 114.784 235.89 114.66 235.89 114.536C236.479 111.029 237.068 107.49 237.657 103.983C238.122 101.251 238.618 98.5197 238.773 95.7261C238.897 93.7395 238.804 91.784 237.471 90.0148C236.82 90.4493 236.169 90.8839 235.549 91.2874C235.642 91.5357 235.704 91.6909 235.735 91.8151C235.053 92.2496 234.154 92.2186 233.937 93.1187C233.906 93.2119 233.72 93.305 233.565 93.336C232.511 93.6154 231.519 94.0189 230.403 94.081C226.993 94.2051 223.583 94.3914 220.172 94.5776C219.738 94.6086 219.273 94.4845 218.901 94.8259C218.467 96.3779 217.971 99.544 218.002 100.537C219.273 100.568 220.544 100.568 221.846 100.599C223.087 100.63 224.327 100.692 225.567 100.755C226.838 100.817 228.14 100.817 229.411 100.972C230.682 101.127 231.984 100.941 233.255 101.499C233.038 101.934 232.852 102.338 232.666 102.741C232.511 103.145 232.387 103.579 232.232 104.014C231.86 104.2 231.519 104.386 231.147 104.51C230.713 104.634 230.775 105.193 230.403 105.348C230.031 105.504 229.659 105.659 229.349 105.907C229.039 106.124 228.822 106.466 228.543 106.776C227.613 106.962 226.559 106.9 225.877 107.801C225.815 107.863 225.691 107.894 225.598 107.925C224.42 108.235 223.211 108.639 222.001 108.856C220.296 109.166 218.56 109.353 216.855 109.601C216.483 109.663 216.111 109.787 215.739 109.911C215.212 112.208 214.716 114.412 214.22 116.647C214.282 116.74 214.344 116.771 214.437 116.895ZM155.007 116.678C156.123 116.616 157.022 116.367 157.921 116.119C161.642 115.064 165.021 113.357 167.997 110.904C169.175 109.911 170.229 108.794 171.035 107.459C172.12 105.628 172.089 103.858 170.756 102.213C170.136 101.437 169.454 100.692 168.71 100.072C167.78 99.3267 166.788 98.6438 165.765 98.0541C163.068 96.5331 160.185 95.5398 157.146 94.9501C156.371 94.7949 155.627 94.5155 154.759 94.7328C154.728 94.919 154.635 95.1053 154.635 95.2915C154.759 102.369 154.883 109.446 155.007 116.678ZM178.537 104.603C178.878 104.852 178.816 105.224 178.816 105.566C178.816 106.559 178.754 107.552 178.847 108.545C179.312 114.133 182.599 117.019 187.063 117.919C188.799 118.261 190.504 118.292 192.24 118.168C194.379 117.982 196.456 117.547 198.409 116.678C199.091 116.367 199.742 115.995 200.331 115.56C200.951 115.095 201.044 114.505 200.641 113.853C200.424 113.481 200.114 113.108 199.773 112.829C199.184 112.363 198.564 111.96 197.913 111.618C196.89 111.091 195.867 110.594 194.813 110.16C192.333 109.135 189.853 108.173 187.373 107.18C185.11 106.249 182.909 105.255 180.863 103.952C179.25 102.958 177.762 101.81 176.646 100.227C176.553 100.103 176.429 100.041 176.243 99.8854C176.553 101.872 176.863 103.765 177.173 105.69C177.731 105.442 177.855 104.697 178.537 104.603ZM145.893 94.9501C144.684 95.2915 143.475 95.5709 142.328 96.0054C141.522 96.2848 141.026 96.0675 140.499 95.5088C140.22 95.1984 140.065 94.7639 139.538 94.5155C139.507 94.888 139.476 95.1363 139.507 95.3536C139.6 96.44 139.662 97.5264 139.786 98.6128C140.251 103.051 140.809 107.459 141.212 111.898C141.336 113.201 141.863 114.04 142.979 114.567C144.095 115.095 145.211 115.591 146.358 116.057C146.792 116.243 147.288 116.305 147.784 116.399C148.032 114.753 147.691 110.191 146.358 96.9056C146.265 96.2538 146.234 95.6019 145.893 94.9501ZM104.134 136.388C103.452 134.774 103.266 133.191 102.925 131.67C102.553 130.118 102.305 128.566 101.933 127.014C101.592 125.493 101.375 123.91 100.879 122.358C100.383 123.103 100.383 123.103 100.414 124.376C100.228 124.531 100.042 124.748 99.7937 124.903C97.0036 126.921 94.5545 129.28 92.0744 131.67C89.1602 134.495 86.3701 137.474 83.766 140.609C82.8669 141.665 82.4329 141.789 81.2239 141.137C78.8367 139.865 77.0077 138.033 75.7056 135.643C75.5506 135.395 75.4576 135.084 75.3646 134.805C75.0236 133.781 75.0856 132.85 75.8916 132.043C76.1086 131.825 76.2946 131.608 76.5426 131.329C76.3566 130.18 76.2016 129.001 76.0156 127.821C75.0546 122.513 74.1555 117.175 73.1015 111.867C72.4814 108.701 71.6444 105.597 70.8384 102.462C70.3423 100.537 69.6603 98.6748 68.6063 96.9366C69.0403 96.3158 69.6913 96.0365 70.2803 95.695C71.6444 94.9501 73.0705 94.4535 74.6825 94.4845C76.1086 94.5155 77.2867 95.0122 78.2787 96.0054C79.1778 96.9056 79.7978 97.9609 80.2628 99.1094C80.9758 100.879 81.3479 102.71 81.6889 104.572C82.4329 108.421 82.9289 112.301 83.2389 116.212C83.425 118.851 83.611 121.458 83.797 124.096C83.828 124.314 83.859 124.562 83.89 124.934C84.355 124.655 84.665 124.438 84.975 124.221C86.8971 122.917 88.7882 121.52 90.7413 120.278C92.9114 118.882 95.2365 117.764 97.7476 117.081C98.1196 116.988 98.4917 116.926 98.9877 116.833C98.8637 117.081 98.8327 117.206 98.7707 117.33C98.7087 117.454 98.6467 117.578 98.5537 117.795C99.0187 117.795 99.3907 117.795 99.7937 117.795C99.7937 117.516 99.8247 117.268 99.7937 117.05C98.3677 110.346 96.9726 103.641 95.2365 97.0298C94.8955 95.695 94.4305 94.3603 94.0275 93.0256C93.7484 92.0944 93.8724 91.722 94.7095 91.3495C95.8565 90.8218 97.0346 90.4804 98.3057 90.4493C100.445 90.3873 102.15 91.2253 103.452 92.9325C104.289 94.0499 104.878 95.3226 105.219 96.6883C105.56 98.023 105.87 99.3888 106.056 100.755C106.831 106.404 107.544 112.084 108.257 117.733C108.598 120.496 108.877 123.258 109.218 126.021C109.28 126.455 109.373 126.89 108.939 127.2C108.815 127.293 108.846 127.573 108.815 127.759C108.784 127.945 108.815 128.225 108.691 128.318C107.916 128.845 107.978 129.683 107.885 130.459C107.823 130.925 107.606 131.298 107.234 131.577C106.552 132.105 105.963 132.694 105.684 133.532C105.529 133.998 104.847 133.874 104.785 134.402C104.754 134.805 104.692 135.209 104.568 135.581C104.599 135.891 104.382 136.078 104.134 136.388ZM100.445 120.247C100.445 120.154 100.445 120.061 100.445 119.999C100.383 120.03 100.29 120.03 100.29 120.061C100.29 120.154 100.321 120.216 100.352 120.31C100.383 120.278 100.414 120.278 100.445 120.247ZM194.317 174.194C194.348 174.691 194.379 175.188 194.441 175.653C194.689 177.267 194.968 178.881 195.185 180.495C195.278 181.178 195.185 181.892 195.185 182.513C194.286 183.413 193.48 184.406 191.992 184.251C191.527 184.065 191.372 183.599 191.248 183.103C190.07 178.881 187.9 175.188 185.327 171.68C185.141 171.432 184.955 171.246 184.769 171.028C182.847 171.121 180.956 171.184 179.033 171.277C178.971 171.587 178.847 171.835 178.816 172.146C178.692 173.636 178.568 175.095 178.475 176.584C178.444 177.236 178.258 177.826 177.886 178.385C177.421 179.099 177.018 179.813 176.615 180.558C176.274 181.209 175.964 181.892 175.22 182.234C174.941 182.358 174.755 182.73 174.6 183.041C174.445 183.351 174.29 183.599 173.949 183.817C173.577 184.034 173.329 184.438 173.019 184.748C172.523 184.593 172.213 184.965 171.841 185.151C171.779 185.12 171.748 185.089 171.717 185.058C171.686 185.027 171.655 184.965 171.655 184.934C171.624 184.841 171.624 184.748 171.624 184.655C171.5 179.44 171.376 174.257 171.283 168.949C171.004 168.7 170.663 168.421 170.322 168.142C168.307 166.372 167.036 164.2 166.788 161.499C166.788 161.406 166.85 161.344 166.881 161.251C167.346 161.344 167.036 162.058 167.594 162.058C167.594 162.182 167.594 162.275 167.594 162.399C167.594 162.306 167.594 162.182 167.594 162.089C167.408 161.189 167.16 160.258 167.346 159.357C167.718 159.14 167.842 159.451 167.997 159.606C168.679 160.351 169.516 160.847 170.415 161.313C170.632 161.406 170.849 161.468 171.19 161.561C171.221 161.158 171.252 160.878 171.252 160.599C171.035 157.247 171.128 153.863 170.88 150.418C170.446 150.418 170.105 150.387 169.795 150.418C169.051 150.542 168.338 150.697 167.625 150.853C167.191 150.946 166.85 150.853 166.54 150.542C166.292 150.294 166.044 150.046 165.858 149.766C164.928 148.369 164.463 146.817 164.556 145.11C164.649 143.744 165.238 142.782 166.571 142.286C168.555 141.572 170.57 141.137 172.616 140.827C175.716 140.33 178.816 140.113 181.948 140.206C185.048 140.299 188.055 140.703 191 141.665C192.643 142.224 194.224 142.937 195.65 143.931C198.378 145.793 200.176 148.307 201.107 151.504C201.851 154.081 201.975 156.688 201.634 159.326C201.231 162.182 199.866 164.572 197.603 166.403C196.673 167.148 195.619 167.738 194.627 168.359C194.255 168.607 193.852 168.794 193.418 169.042C195.154 172.673 196.239 176.398 195.96 180.464C195.557 180.216 195.712 179.813 195.65 179.471C195.557 179.099 195.495 178.695 195.464 178.292C195.309 176.988 194.968 175.777 194.503 174.567C194.441 174.443 194.348 174.35 194.255 174.225C194.193 174.194 194.317 173.915 194.069 174.07C194.193 174.101 194.255 174.163 194.317 174.194ZM179.56 163.362C179.995 163.393 180.212 163.424 180.46 163.424C184.397 163.175 188.21 162.368 191.775 160.661C192.829 160.164 193.852 159.513 194.813 158.83C195.402 158.395 195.929 157.837 196.332 157.247C197.293 155.912 197.2 154.515 196.084 153.305C195.526 152.715 194.813 152.218 194.1 151.784C193.046 151.132 191.868 150.759 190.659 150.449C187.373 149.58 184.025 149.332 180.646 149.487C180.522 149.487 180.367 149.58 180.243 149.642C180.057 154.143 179.808 158.675 179.56 163.362ZM212.763 177.081C212.112 177.298 211.678 177.764 211.43 178.385C210.5 180.464 211.492 184.375 212.732 185.71C213.104 186.114 213.538 186.269 214.065 186.114C214.251 186.052 214.437 185.989 214.623 185.927C219.831 184.251 225.133 182.979 230.496 182.047C233.813 181.458 237.13 180.93 240.509 180.744C241.16 180.713 241.656 180.464 242.09 180.061C243.02 179.192 244.106 178.602 245.284 178.23C245.47 178.167 245.625 178.074 245.811 178.012C245.625 177.795 245.47 177.609 245.315 177.391C245.935 176.926 246.865 177.112 247.268 176.429C247.671 175.777 248.601 175.529 248.725 174.66C248.539 174.567 248.415 174.505 248.291 174.443C248.043 174.35 247.826 174.288 247.578 174.225C245.222 173.636 242.803 173.387 240.354 173.325C234.588 173.17 228.884 173.76 223.18 174.722C222.808 174.784 222.436 174.784 222.032 174.815C222.125 173.791 223.428 168.762 223.862 167.8C225.753 167.552 227.644 167.273 229.566 167.086C230.93 166.962 232.201 166.59 233.472 166.186C233.689 166.124 233.968 166 234.092 165.845C234.464 165.348 234.991 165.317 235.549 165.255C235.921 165.224 236.293 165.069 236.696 164.976C236.975 164.231 237.75 164.138 238.308 163.796C238.463 163.703 238.618 163.548 238.711 163.393C238.866 163.082 239.114 162.989 239.393 162.865C239.703 162.741 240.013 162.555 240.23 162.461C240.602 161.561 240.943 160.754 241.315 159.792C239.92 159.637 238.649 159.42 237.378 159.357C236.138 159.264 234.898 159.14 233.658 159.078C232.387 158.985 231.085 158.923 229.814 158.83C228.543 158.737 227.241 158.892 225.877 158.612C226.249 156.688 226.621 154.795 226.993 152.839C227.675 152.808 228.264 152.777 228.853 152.777C232.108 152.684 235.394 152.653 238.649 152.467C239.672 152.405 240.664 152.032 241.687 151.815C242.152 151.722 242.183 151.225 242.493 150.977C242.648 150.853 242.834 150.79 243.02 150.697C243.33 150.573 243.641 150.449 243.951 150.325C243.92 150.077 243.889 149.89 243.827 149.642C244.85 149.021 245.842 148.431 246.896 147.811C246.958 147.345 246.989 146.879 247.051 146.383C246.772 146.321 246.586 146.259 246.369 146.228C244.075 145.886 241.749 145.545 239.455 145.234C235.27 144.645 231.116 144.086 226.9 143.807C224.916 143.651 222.963 143.496 220.978 143.341C219.831 143.248 218.746 143.403 217.63 143.713C217.599 144.893 217.599 145.979 217.506 147.066C217.196 150.387 216.917 153.677 216.514 156.998C215.832 162.648 215.057 168.328 214.313 173.977C214.189 174.846 214.065 175.746 213.91 176.709C213.507 176.833 213.135 176.957 212.763 177.081ZM202.75 186.672C202.967 186.3 203.184 185.896 203.339 185.493C203.556 184.996 204.176 185.369 204.424 184.903C204.858 184.158 205.602 183.724 206.408 183.413C206.842 183.227 207.121 182.917 207.307 182.482C207.431 182.172 207.586 181.83 207.71 181.52C207.865 181.209 208.02 180.93 208.392 180.775C208.578 180.713 208.733 180.464 208.857 180.278C208.981 180.092 209.043 179.751 209.198 179.657C209.601 179.44 209.663 179.099 209.725 178.695C210.407 173.977 211.12 169.29 211.802 164.572C212.298 161.189 212.732 157.805 213.135 154.391C213.352 152.622 213.6 150.853 213.538 149.052C213.476 147.593 213.259 146.197 212.67 144.862C211.864 143.062 210.531 141.944 208.64 141.417C207.524 141.106 206.377 141.075 205.261 141.23C203.68 141.417 203.742 141.851 203.742 143.062C203.773 147.035 203.804 151.008 203.649 154.95C203.339 162.182 202.905 169.414 202.533 176.647C202.409 179.068 202.223 181.489 202.099 183.941C202.037 184.934 202.099 185.896 202.099 187.138C202.471 186.89 202.688 186.797 202.75 186.672ZM100.445 119.999C100.383 120.03 100.29 120.03 100.29 120.061C100.29 120.154 100.321 120.216 100.352 120.31C100.383 120.278 100.414 120.278 100.445 120.278C100.445 120.154 100.445 120.092 100.445 119.999ZM167.594 162.089C167.594 162.213 167.594 162.306 167.594 162.43C167.625 162.306 167.625 162.213 167.594 162.089C167.594 162.089 167.625 162.12 167.594 162.089ZM194.286 174.225C194.224 174.194 194.348 173.915 194.1 174.07C194.162 174.101 194.255 174.163 194.317 174.194L194.286 174.225ZM165.424 159.295C165.424 159.42 165.424 159.513 165.424 159.637C165.455 159.513 165.455 159.42 165.424 159.295C165.424 159.295 165.455 159.326 165.424 159.295Z" fill="currentColor"/>
<path d="M0 147.47C0.0310014 147.439 0.0930043 147.439 0.124006 147.407C0.496023 146.538 1.27106 146.073 2.0461 145.607C7.87437 141.851 13.8266 138.251 19.9649 135.023C26.4442 131.608 33.1095 128.66 40.1159 126.456C40.3329 126.394 40.5189 126.3 40.6739 126.238C40.7979 124.997 40.9839 123.786 41.0459 122.576C41.3869 115.685 42.627 108.949 44.7041 102.338C47.4322 93.7088 51.5244 85.7316 56.7946 78.4063C57.3527 77.6303 57.8797 76.8543 58.4377 76.1093C58.7477 75.6748 58.8097 75.2402 58.8407 74.7125C58.8717 73.4399 58.9957 72.1362 59.1508 70.8636C59.5538 67.5113 59.9568 64.159 60.4838 60.8378C61.0418 57.2372 61.6309 53.6366 62.3439 50.067C63.708 43.2693 65.103 36.5027 66.5601 29.736C67.8932 23.4039 69.8773 17.2891 72.5434 11.3916C73.6284 8.97047 74.9615 6.67353 76.7906 4.68699C78.9607 2.32798 81.6268 0.869111 84.7889 0.310397C85.161 0.248318 85.533 0.124159 85.905 0C86.556 0 87.2071 0 87.8271 0C88.1061 0.0931191 88.3851 0.186238 88.6641 0.248318C90.5242 0.558714 92.1673 1.30367 93.6864 2.35902C96.7245 4.43868 99.3906 6.98393 101.778 9.80854C108.102 17.3201 114.395 24.8007 120.689 32.3123C121.061 32.7469 121.402 33.2125 121.774 33.6781C122.084 33.5849 122.394 33.5229 122.704 33.4297C129.462 31.3811 136.313 29.8602 143.258 28.7428C148.466 27.9047 153.674 27.346 158.913 27.0977C162.975 26.9114 167.036 26.6321 171.097 26.7252C174.693 26.8183 178.289 27.0045 181.854 27.2528C184.831 27.4701 187.776 27.8116 190.721 28.153C195.185 28.6807 199.587 29.4877 203.958 30.481C207.989 31.3811 212.019 32.4054 215.956 33.647C216.7 33.8643 217.165 33.6781 217.63 33.1194C224.698 24.7697 231.798 16.451 238.897 8.10136C239.734 7.10809 240.633 6.11482 241.563 5.18363C244.012 2.76253 246.895 1.14847 250.337 0.651834C254.336 0.0931191 257.87 1.08639 260.784 3.94204C262.861 5.95962 264.349 8.38072 265.744 10.8949C268.007 14.9922 269.589 19.3998 270.829 23.9006C272.348 29.3635 273.557 34.8576 274.549 40.4447C275.324 44.7282 276.099 49.0427 276.812 53.3572C277.37 56.7716 277.897 60.1549 278.393 63.5693C278.827 66.5491 279.261 69.4979 279.664 72.4777C279.819 73.4709 279.974 74.4953 279.726 75.5196C279.602 76.0162 279.819 76.4197 280.098 76.8232C282.144 79.5858 284.035 82.4725 285.771 85.4523C290.608 93.8019 293.987 102.71 295.723 112.24C296.374 115.871 296.839 119.503 296.87 123.197C296.87 124.221 296.87 125.214 296.87 126.238C296.87 126.487 296.87 126.735 296.87 127.014C297.335 127.17 297.769 127.325 298.172 127.449C305.612 129.994 312.681 133.347 319.532 137.133C324.709 139.989 329.7 143.093 334.692 146.29C335.405 146.756 335.87 147.314 336.087 148.121C336.087 148.308 336.087 148.525 336.087 148.711C336.056 148.742 335.994 148.773 335.994 148.804C335.529 150.574 334.196 151.163 332.583 150.325C331.994 150.015 331.405 149.704 330.816 149.363C323.872 145.607 316.99 141.727 309.828 138.282C305.767 136.326 301.675 134.557 297.459 133.036C297.242 132.943 297.025 132.912 296.715 132.819C296.126 139.368 294.855 145.669 292.778 151.784C292.964 151.908 293.119 152.001 293.243 152.094C298.978 155.819 304.093 160.258 308.743 165.255C313.084 169.911 316.99 174.909 320.927 179.906C321.144 180.185 321.361 180.527 321.485 180.868C322.136 182.42 321.361 184.003 319.749 184.438C318.602 184.748 317.641 184.438 316.835 183.507C311.844 177.671 306.666 171.96 301.148 166.621C298.017 163.61 294.731 160.786 291.166 158.302C290.949 158.147 290.732 158.023 290.453 157.837C287.693 164.293 284.221 170.253 280.129 175.84C280.284 176.057 280.377 176.212 280.501 176.399C282.144 178.851 283.88 181.241 285.461 183.755C290.546 191.794 294.7 200.299 297.831 209.27C298.451 211.07 297.614 212.56 295.785 213.025C294.328 213.398 293.305 212.901 292.716 211.567C291.104 207.873 289.367 204.272 287.507 200.703C284.128 194.215 280.315 188.007 276.037 182.079C275.913 181.924 275.758 181.768 275.603 181.582C275.386 181.831 275.2 182.048 275.014 182.234C273.526 183.848 272.1 185.462 270.55 187.045C267.139 190.553 263.45 193.781 259.606 196.792C252.321 202.441 244.508 207.221 236.231 211.194C226.094 216.067 215.522 219.668 204.548 222.12C200.3 223.082 195.991 223.858 191.682 224.448C188.892 224.82 186.071 225.131 183.25 225.379C180.738 225.596 178.196 225.721 175.685 225.876C175.561 225.876 175.468 225.938 175.344 226C171.562 226 167.811 226 164.029 226C163.874 225.969 163.719 225.876 163.564 225.876C158.851 225.783 154.17 225.379 149.489 224.852C144.622 224.293 139.786 223.486 134.98 222.461C121.619 219.606 108.846 215.136 96.7865 208.711C83.3319 201.541 71.4273 192.446 61.5689 180.744C61.4449 180.589 61.2899 180.465 61.1658 180.341C60.9798 180.589 60.8248 180.775 60.6698 180.961C54.8106 188.97 49.8193 197.506 45.6031 206.507C44.8281 208.121 44.1151 209.766 43.371 211.38C43.03 212.156 42.503 212.715 41.6349 212.839C40.4569 213.025 39.4648 212.622 38.6898 211.784C37.9768 211.008 37.8838 210.077 38.2558 209.083C39.9609 204.241 41.945 199.492 44.2391 194.898C47.6802 187.976 51.7104 181.458 56.2676 175.25C56.4536 175.002 56.6086 174.785 56.7636 174.536C52.7955 168.949 49.5403 163.051 46.9362 156.75C46.5952 156.968 46.3472 157.123 46.0991 157.278C41.4799 160.289 37.3877 163.921 33.4816 167.801C29.7304 171.494 26.1652 175.343 22.6931 179.316C21.453 180.713 20.2439 182.141 19.0349 183.507C18.2909 184.345 17.1438 184.562 16.0277 184.127C14.9737 183.724 14.3537 182.762 14.3847 181.644C14.4157 180.837 14.7567 180.154 15.2527 179.565C16.5858 177.888 17.9188 176.212 19.2519 174.567C22.7241 170.253 26.2582 166 30.2264 162.12C34.5046 157.93 39.1548 154.174 44.2701 151.039C44.4251 150.946 44.5801 150.822 44.7351 150.698C42.782 144.614 41.5729 138.437 41.1389 132.012C40.7979 132.105 40.5499 132.167 40.3019 132.26C37.0467 133.347 33.8846 134.619 30.7534 136.016C24.3981 138.841 18.2598 142.1 12.1836 145.421C9.33143 146.973 6.4793 148.525 3.62717 150.077C2.1701 150.853 1.08505 150.511 0.279013 149.053C0.21701 148.928 0.0930043 148.866 0 148.773C0 148.277 0 147.873 0 147.47ZM116.999 40.8172C116.937 40.693 116.875 40.631 116.844 40.5378C116.317 39.0479 115.449 37.7443 114.271 36.6889C114.178 36.5958 114.023 36.5027 114.054 36.4096C114.085 35.975 113.744 35.7577 113.527 35.4784C110.675 32.033 107.823 28.6186 104.971 25.1732C101.53 20.9828 98.1196 16.7925 94.4614 12.8194C92.8493 11.0501 91.0822 9.46711 89.0361 8.22552C88.1681 7.69784 87.2071 7.44953 86.184 7.57368C84.7889 7.75992 83.6109 8.41176 82.5878 9.34295C81.5028 10.3362 80.7588 11.5468 80.0767 12.8504C77.9066 17.0408 76.2946 21.4174 75.0545 25.9492C74.3105 28.6496 73.7834 31.4122 73.1944 34.1437C71.4583 42.3071 69.5982 50.4085 68.2962 58.665C68.2342 59.0375 68.1102 59.3789 68.0172 59.7204C67.8622 60.248 67.6141 60.7447 67.4901 61.2723C66.2811 66.5801 65.072 71.919 63.863 77.2267C63.801 77.5371 63.708 77.8475 63.522 78.0959C62.9949 78.8408 62.4679 79.5858 61.9099 80.3307C58.4997 84.9246 55.5546 89.7978 53.1675 95.0125C49.1993 103.704 46.9052 112.829 46.3472 122.358C46.3162 123.103 46.3472 123.879 46.3472 124.624C46.4402 124.624 46.5022 124.655 46.5642 124.624C49.6643 123.879 52.8265 123.352 55.9886 122.917C57.4147 122.731 58.4377 123.693 58.8407 124.686C59.3058 125.835 58.9337 127.076 57.9417 127.79C57.4457 128.132 56.8876 128.318 56.2986 128.411C54.0355 128.784 51.7414 129.156 49.4783 129.591C48.4553 129.777 47.4632 130.056 46.4092 130.336C46.7192 136.419 47.7732 142.286 49.5713 148.059C49.8813 147.935 50.0983 147.811 50.3153 147.718C51.3384 147.283 52.3614 146.849 53.3845 146.383C54.7795 145.731 56.3296 146.569 57.0737 147.656C57.8487 148.835 57.7557 150.356 56.7636 151.35C56.3296 151.784 55.8026 152.126 55.2446 152.374C54.2525 152.87 53.2295 153.305 52.2064 153.771C52.0204 153.864 51.8964 153.957 51.7104 154.081C53.9735 159.73 56.8566 165.007 60.2668 170.004C61.4759 169.228 61.6619 169.166 62.4679 169.135C64.421 169.042 66.0021 170.253 66.2501 172.177C66.4051 173.264 66.0021 174.226 65.351 175.095C65.134 175.374 64.886 175.654 64.669 175.964C64.886 176.243 65.041 176.461 65.227 176.647C67.6451 179.565 70.1873 182.327 72.9154 184.934C77.5966 189.466 82.6498 193.532 88.0441 197.195C98.5226 204.272 109.869 209.611 121.898 213.46C128.625 215.633 135.476 217.309 142.452 218.457C145.893 219.016 149.365 219.482 152.837 219.854C155.689 220.165 158.572 220.351 161.425 220.506C163.936 220.63 166.478 220.723 168.989 220.723C171.345 220.723 173.701 220.63 176.057 220.506C179.405 220.32 182.754 220.133 186.071 219.792C191.558 219.233 196.983 218.364 202.346 217.185C214.437 214.546 226.063 210.542 237.068 204.893C245.128 200.765 252.693 195.86 259.637 190.025C264.101 186.269 268.255 182.172 272.038 177.702C272.193 177.547 272.317 177.361 272.472 177.144C271.976 176.554 271.511 175.964 271.077 175.374C270.426 174.536 270.085 173.605 270.178 172.55C270.271 171.277 271.201 170.098 272.534 169.663C273.836 169.259 275.386 169.415 276.223 170.501C276.44 170.78 276.688 171.06 276.936 171.37C279.137 168.98 285.12 158.209 286.05 155.012C285.864 154.919 285.678 154.795 285.492 154.702C284.128 154.05 282.733 153.429 281.369 152.777C280.873 152.529 280.377 152.312 279.974 151.939C278.765 150.915 278.517 149.332 279.292 148.059C280.16 146.632 281.71 146.104 283.198 146.725C284.655 147.345 286.081 148.028 287.538 148.68C287.786 148.804 288.003 148.897 288.282 149.022C290.174 143.155 291.321 137.195 291.724 131.081C291.445 130.987 291.228 130.925 290.98 130.863C287.383 129.87 283.756 129.156 280.067 128.66C279.602 128.597 279.106 128.442 278.672 128.194C277.556 127.573 277.122 126.332 277.494 125.121C277.897 123.848 279.044 123.041 280.222 123.165C283.787 123.6 287.321 124.252 290.825 125.121C291.166 125.214 291.476 125.276 291.786 125.338C291.817 125.214 291.848 125.152 291.848 125.121C291.848 124.811 291.817 124.531 291.817 124.221C291.724 120.186 291.29 116.213 290.515 112.24C288.406 101.531 284.159 91.7223 278.021 82.6897C276.316 80.1755 274.456 77.7855 272.534 75.4575C272.286 75.1471 272.162 74.8988 272.224 74.4642C272.41 73.2847 272.317 72.1052 271.976 70.9257C271.883 70.6463 271.852 70.3359 271.852 70.0566C271.852 69.1875 271.79 68.3184 271.542 67.4803C271.387 66.9216 271.046 66.3939 271.356 65.7731C271.387 65.711 271.356 65.6179 271.325 65.5558C271.108 64.1901 270.953 62.7933 270.705 61.4275C269.744 55.7162 268.783 50.036 267.79 44.3247C266.798 38.5203 265.589 32.7779 264.039 27.0977C262.954 23.0315 261.683 18.9963 259.699 15.2405C258.769 13.4402 257.746 11.6709 256.475 10.0879C255.483 8.84631 254.274 7.91512 252.631 7.822C251.515 7.75992 250.461 8.03928 249.469 8.53592C248.012 9.21879 246.865 10.3052 245.81 11.5157C241.749 16.2958 237.657 21.076 233.596 25.8561C230.899 29.0221 228.202 32.2192 225.505 35.3852C225.101 35.8819 224.729 36.4096 224.264 36.8752C223.055 38.1167 221.815 39.3273 220.482 40.631C220.296 40.662 219.955 40.693 219.614 40.7241C218.25 40.9103 217.103 40.4758 216.235 39.4204C215.956 39.079 215.615 38.8617 215.212 38.7375C206.036 35.944 196.704 33.8953 187.187 32.871C182.505 32.3744 177.824 32.0019 173.112 31.9088C166.664 31.7846 160.215 31.9398 153.798 32.5917C149.427 33.0262 145.087 33.5849 140.778 34.392C132.965 35.8198 125.308 37.8063 117.805 40.4758C117.495 40.662 117.247 40.7241 116.999 40.8172Z" fill="currentColor"/>
</svg>
